<?xml version="1.0" encoding="utf-8"?>
<!-- Generator: Adobe Illustrator 22.0.0, SVG Export Plug-In . SVG Version: 6.00 Build 0)  -->
<svg version="1.1" id="Capa_1" xmlns="http://www.w3.org/2000/svg" xmlns:xlink="http://www.w3.org/1999/xlink" x="0px" y="0px"
	 viewBox="0 0 700 700" style="enable-background:new 0 0 700 700;" xml:space="preserve">
<style type="text/css">
	.st0{fill:#154C03;stroke:#000000;stroke-miterlimit:10;}
</style>
<path d="M183.4,505c-3.8-1.8-4.5-2.6-4.6-2.7c-0.7-1.4-2.2-4.2-5.4-6.1c-0.5-1.9-0.7-6.6-0.6-10.3c0-1.1-0.6-2.1-1.6-2.4
	c-1-0.4-2.2,0-2.8,0.8c-0.1,0.1-4.8,6.7-6.6,11c-6.9,3.5-14.5,15.5-16.9,19.5c-4.5,0.3-19.2,1.5-33,4.9c0,0,0,0,0,0c0,0,0,0,0,0
	c-9.3,2.3-18.2,5.7-23.5,10.5c-9,8.1-18.2,10.3-23.9,9.7c-1.2-0.1-2.3,0.6-2.7,1.7c-0.4,1.1,0.1,2.3,1.1,2.9
	c0.3,0.2,5.2,3.1,11.1,3.9l-0.6,0.6c-0.7,0.7-0.9,1.8-0.4,2.7c0.4,0.9,1.3,1.5,2.4,1.5c0.5,0,10.1-0.5,18.7-6.9
	c-1.1,2.6-2.7,4.9-4.7,6.2c-1,0.5-5,2.5-5.1,6.2c0,0.8-0.8,2.5-1.3,3.9c-0.9,2.1-1.8,4.3-1.8,6.2c0,3.4,3.7,7.8,4.9,9
	c0.5,0.5,1.1,0.8,1.8,0.8h10.9c0.8,0,1.5-0.4,2-1c0.5-0.6,0.6-1.4,0.4-2.2l-1.1-4.1c-0.1-0.3-0.2-0.6-0.5-0.9l-2.3-2.9
	c0-1.6,0.3-4.4,1.8-6c0.4-0.5,1-0.8,1.6-1v4.9c0,0.5,0.2,1.1,0.5,1.5l8,10.7c0.5,0.6,1.2,1,2,1H123c1.4,0,2.5-1.1,2.5-2.5v-4.9
	c0-3.5-4.5-5.5-7.6-6.6c-1.3-1.5-2.5-3.3-2.5-4c0-0.9,1.7-2.6,4.2-3.7c0.3-0.1,0.8-0.4,1.4-0.7c0.6-0.3,1.4-0.7,2.3-1.1
	c0.2,0,0.3,0,0.5-0.1c0.3-0.1,0.6-0.3,0.9-0.5c5.4-2.4,14-5.1,19.8-1.2l1.3,16.2c0,0.4,0.2,0.9,0.4,1.2l3.5,5
	c0.5,0.7,1.2,1.1,2.1,1.1h10.4c1.4,0,2.5-1.1,2.5-2.5v-1.2c0-3.6-2.4-6.9-5.8-8l0.3-16.8c4-2.8,16-12.9,14.9-31l3.8,1
	c2.4,0.6,4.9-0.4,6.1-2.6l1.9-3.4h0c0.7-1.3,0.9-2.9,0.4-4.3C185.8,506.8,184.7,505.6,183.4,505L183.4,505z"/>
<path d="M516.6,505c-1.3,0.6-2.4,1.8-2.8,3.2c-0.5,1.4-0.3,3,0.4,4.3h0l1.9,3.4c1.2,2.1,3.7,3.2,6.1,2.6l3.8-1
	c-1.1,18.2,10.9,28.2,14.9,31l0.3,16.8c-3.4,1.1-5.8,4.3-5.8,8v1.2c0,1.4,1.1,2.5,2.5,2.5h10.4c0.8,0,1.6-0.4,2.1-1.1l3.5-5
	c0.3-0.4,0.4-0.8,0.4-1.2l1.3-16.2c5.8-4,14.4-1.2,19.8,1.2c0.3,0.2,0.5,0.4,0.9,0.5c0.2,0.1,0.3,0.1,0.5,0.1
	c0.9,0.4,1.7,0.8,2.3,1.1c0.6,0.3,1.1,0.6,1.4,0.7c2.5,1.1,4.2,2.7,4.2,3.7c0,0.7-1.2,2.5-2.5,4c-3.1,1-7.6,3.1-7.6,6.6v4.9
	c0,1.4,1.1,2.5,2.5,2.5h11.9c0.8,0,1.5-0.4,2-1l8-10.7c0.3-0.4,0.5-1,0.5-1.5v-4.9c0.6,0.2,1.2,0.6,1.6,1c1.5,1.6,1.8,4.4,1.8,6
	l-2.3,2.9c-0.2,0.3-0.4,0.6-0.5,0.9l-1.1,4.1c-0.2,0.7,0,1.5,0.4,2.2s1.2,1,2,1h10.9c0.7,0,1.4-0.3,1.8-0.8c1.1-1.3,4.9-5.6,4.9-9
	c0-1.9-0.9-4.1-1.8-6.2c-0.6-1.4-1.3-3.1-1.3-3.9c-0.2-3.8-4.1-5.8-5.1-6.2c-2-1.2-3.6-3.6-4.7-6.2c8.6,6.3,18.2,6.8,18.7,6.9
	c1.1,0.1,2-0.5,2.4-1.5c0.4-0.9,0.2-2-0.4-2.7l-0.6-0.6c5.9-0.7,10.8-3.7,11.1-3.9c1-0.6,1.4-1.8,1.1-2.9c-0.4-1.1-1.5-1.8-2.7-1.7
	c-5.7,0.7-14.9-1.5-23.9-9.7c-5.3-4.9-14.3-8.2-23.5-10.5c0,0,0,0,0,0c0,0,0,0,0,0c-13.9-3.5-28.5-4.7-33-4.9
	c-2.4-4.1-9.9-16.1-16.9-19.5c-1.7-4.3-6.5-10.9-6.6-11c-0.7-0.9-1.8-1.2-2.8-0.8c-1,0.4-1.7,1.4-1.6,2.4c0.1,3.8-0.1,8.4-0.6,10.3
	c-3.2,1.9-4.7,4.7-5.4,6.1C521.1,502.3,520.4,503.2,516.6,505L516.6,505z"/>
<path class="st0" d="M126.7,394.4c9.2,9.2,24.2,9.2,33.4,0l179.3-179.3c6.1-6.1,16.1-6.1,22.3,0l178.2,178.2
	c9.2,9.2,24.2,9.2,33.4,0c9.3-9.2,9.2-24.2,0-33.4l-63.5-63.5c0.1,0,0.1-109.3,0.1-109.3c0-13.8-9.9-24.9-22.1-24.9h-14.7
	c-12.2,0-22.1,11.1-22.1,24.9v50.5l-96.9-96.9c-1.9-2-5.1-2-7.1,0L126.7,361C117.5,370.2,117.5,385.2,126.7,394.4L126.7,394.4z"/>
<path class="st0" d="M353.7,236.6c-2-2-5.1-2-7.1,0c0,0-133.1,132.8-152.2,151.9c-2,2-3.5,5.8-3.5,8.6v138.5
	c0,27.2,22,49.2,49.2,49.2h51.8c2.8,0,5-2.2,5-5v-96.9c0-29.6,23.8-53.7,53-53.7c29.3,0,53,24,53,53.7v96.9c0,2.8,2.2,5,5,5h51.8
	c27.2,0,49.2-22,49.2-49.2V397.1c0-2.8-1.6-6.6-3.5-8.6L353.7,236.6z"/>
</svg>
