<?xml version="1.0" encoding="utf-8"?>
<!-- Generator: Adobe Illustrator 22.0.0, SVG Export Plug-In . SVG Version: 6.00 Build 0)  -->
<svg version="1.1" id="Capa_1" xmlns="http://www.w3.org/2000/svg" xmlns:xlink="http://www.w3.org/1999/xlink" x="0px" y="0px"
	 viewBox="0 0 700 700" style="enable-background:new 0 0 700 700;" xml:space="preserve">
<style type="text/css">
	.st0{fill:#5B5B5B;stroke:#000000;stroke-miterlimit:10;}
	.st1{fill:#009045;}
	.st2{fill:#E9BC00;}
	.st3{fill:#753434;}
</style>
<path class="st0" d="M126.7,312.4c9.2,9.2,24.2,9.2,33.4,0l179.3-179.3c6.1-6.1,16.1-6.1,22.3,0l178.2,178.2
	c9.2,9.2,24.2,9.2,33.4,0c9.3-9.2,9.2-24.2,0-33.4l-63.5-63.5c0.1,0,0.1-109.3,0.1-109.3c0-13.8-9.9-24.9-22.1-24.9h-14.7
	c-12.2,0-22.1,11.1-22.1,24.9v50.5l-96.9-96.9c-1.9-2-5.1-2-7.1,0L126.7,279C117.5,288.2,117.5,303.2,126.7,312.4L126.7,312.4z"/>
<path class="st0" d="M353.7,154.6c-2-2-5.1-2-7.1,0c0,0-133.1,132.8-152.2,151.9c-2,2-3.5,5.8-3.5,8.6v138.5
	c0,27.2,22,49.2,49.2,49.2h51.8c2.8,0,5-2.2,5-5v-96.9c0-29.6,23.8-53.7,53-53.7c29.3,0,53,24,53,53.7v96.9c0,2.8,2.2,5,5,5h51.8
	c27.2,0,49.2-22,49.2-49.2V315.1c0-2.8-1.6-6.6-3.5-8.6L353.7,154.6z"/>
<path class="st1" d="M571.8,439.9c22.4-4,19.4-16.2,19.4-16.2C568.7,427.6,571.8,439.9,571.8,439.9z"/>
<path class="st1" d="M567.7,445.8c0,0,3.1-12.3-19.4-16.2C548.3,429.5,545.3,441.8,567.7,445.8z"/>
<path class="st2" d="M601.3,450.5h-31.5c0.2-1.8,0.6-3.9,0.9-7c0.8-6,1.6-12.7,1.4-20.3c5.5-0.6,8.1-3.9,7.1-8.3
	c3.5,3.8,8.4,2.5,11.5-3.2c3-5.6,1.4-10.1-3.2-11.4c5-1.1,6.4-6,3-11.5c-3.2-5.2-7.7-6.2-11.1-3.3c0.8-4.5-2.3-7.8-8.4-8
	c-6.5-0.2-10,3.4-8.5,8.3c-3.5-3.3-8.1-2.4-11.5,3c-3.3,5.5-2.1,10.3,2.9,11.5c-4.6,1.4-6.1,5.9-3.1,11.4c3.2,6,8.4,7.1,12,2.6
	c-1.9,4.9,1.1,8.6,6.9,8.9c0.1,7.4-0.7,14.1-1.4,20c-0.4,3.1-0.8,5.4-1,7.3H536c-0.4,0-0.7,0.4-0.7,0.8l1.8,11.8
	c0.1,0.4,0.5,0.8,0.9,0.8h61.2c0.4,0,0.8-0.4,0.9-0.8l1.8-11.8C602.1,450.9,601.8,450.5,601.3,450.5L601.3,450.5z M563.8,400.4
	c0-3.9,3.1-7,7-7s7,3.1,7,7s-3.1,7-7,7C566.9,407.4,563.8,404.3,563.8,400.4z"/>
<path class="st3" d="M549.7,501.3c0.2,0.8,1.1,1.5,2,1.5h33.8c0.9,0,1.8-0.7,2-1.5l9.4-35.2h-56.7L549.7,501.3z"/>
<path class="st1" d="M108.8,423.6c0,0-3.1,12.3,19.4,16.2C128.2,439.9,131.3,427.6,108.8,423.6z"/>
<path class="st1" d="M132.3,445.8c22.4-4,19.4-16.2,19.4-16.2C129.2,433.5,132.3,445.8,132.3,445.8z"/>
<path class="st2" d="M164.1,450.5h-31.3c-0.2-1.9-0.6-4.1-1-7.3c-0.7-5.9-1.5-12.5-1.4-20c5.9-0.4,8.8-4,6.9-8.9
	c3.5,4.5,8.7,3.3,12-2.6c3-5.5,1.5-10-3.1-11.4c4.9-1.2,6.2-6,2.9-11.5c-3.3-5.4-8-6.3-11.5-3c1.5-4.9-2-8.5-8.5-8.3
	c-6.1,0.2-9.2,3.5-8.4,8c-3.4-2.9-7.9-1.9-11.1,3.3c-3.4,5.5-2.1,10.4,3,11.5c-4.7,1.3-6.3,5.9-3.2,11.4c3.1,5.7,7.9,7,11.5,3.2
	c-1,4.3,1.6,7.7,7.1,8.3c-0.1,7.6,0.7,14.4,1.4,20.3c0.4,3.1,0.7,5.2,0.9,7H98.8c-0.4,0-0.7,0.4-0.7,0.8l1.8,11.8
	c0.1,0.4,0.5,0.8,0.9,0.8H162c0.4,0,0.8-0.4,0.9-0.8l1.8-11.8C164.8,450.9,164.5,450.5,164.1,450.5L164.1,450.5z M122.2,400.4
	c0-3.9,3.1-7,7-7c3.9,0,7,3.1,7,7s-3.1,7-7,7C125.4,407.4,122.2,404.3,122.2,400.4z"/>
<path class="st3" d="M112.5,501.3c0.2,0.8,1.1,1.5,2,1.5h33.8c0.9,0,1.8-0.7,2-1.5l9.4-35.2H103L112.5,501.3z"/>
</svg>
