<?xml version="1.0" encoding="utf-8"?>
<!-- Generator: Adobe Illustrator 22.0.0, SVG Export Plug-In . SVG Version: 6.00 Build 0)  -->
<svg version="1.1" id="Capa_1" xmlns="http://www.w3.org/2000/svg" xmlns:xlink="http://www.w3.org/1999/xlink" x="0px" y="0px"
	 viewBox="0 0 700 700" style="enable-background:new 0 0 700 700;" xml:space="preserve">
<style type="text/css">
	.st0{fill:#BF0811;}
</style>
<path d="M202.3,313.8c-6.3,0-11.5,0-17.3,0c1-6.4,1.9-12.2,2.8-17.9c-0.4-0.2-0.8-0.4-1.1-0.7c-1.7,1.4-3.7,2.5-5,4.2
	c-8.7,12.1-20.1,15.8-34.8,14.6c-15.8-1.3-31.9-0.3-47.8-0.3c-1.7,0-3.4,0-5.7,0c0,8.4-0.4,16.6,0.1,24.7c0.6,10.9,1,21.8,6.3,31.9
	c6,11.4,13.4,21.4,24.3,28.5c6.1,4,6.1,10.1,5,16.1c-3,17.2-13.2,29-28.3,37c-6.4,3.4-6.8,3.8-2.9,10c5.8,9.2,12.1,18.2,17.9,27.4
	c1.8,2.9,2.7,6.3,4,9.5c-4,0.5-8.2,2-12,1.4c-12.3-2.1-20.7-10.1-27.5-20.2c-9.1-13.6-13.7-28.9-16.5-44.7
	c-3.3-18.8-6.8-37.7-8.2-56.7c-1.4-19.7-0.9-39.5-0.3-59.3c0.6-19.5,5-38.3,13.8-56c12.4-25.1,32.1-40.2,60.1-44.5
	c17.5-2.7,34.7-2.1,51.5,3.8c22.6,7.9,36.9,24.4,46.2,45.7c7.5,17.2,10.7,35.5,12.4,54.1c1.8,20.1,1.6,40.1-0.2,60.1
	c-2.3,26.2-5.3,52.4-13.9,77.5c-4.7,13.7-11,26.5-23.1,35.4c-6.4,4.6-13.5,7.4-21.6,5.6c-5.1-1.1-5.8-2-3.1-6.4
	c5.6-9.2,11.7-18.1,17.5-27.2c1.6-2.5,2.9-5.1,4.3-7.6c1.9-3.5,0.8-5.6-2.8-7.2c-9.3-4.3-16.9-10.7-22.3-19.4
	c-4.5-7.4-7.8-15.3-7.3-24.3c0.2-4.6,2-8.1,5.8-10.9c14.8-10.7,25.4-24.6,27.8-43C201.9,341.5,201.6,327.9,202.3,313.8z"/>
<path class="st0" d="M331.7,202c7.2-5.7,12.4-11.2,18.8-14.5c17.7-9.2,39.8,7.2,39.1,28.1c-0.3,11-5.1,19.8-12.6,26.7
	c-11.8,10.9-24.5,20.7-37,30.8c-4.3,3.5-8.9,3.4-13.7,0.2c-16.3-11.1-32.1-23-43.7-39.2c-13.3-18.5-4.7-42.6,16.8-48.5
	c8.6-2.4,16.2,0.1,22.6,5.7C325.7,194.6,328.7,198.6,331.7,202z"/>
<path d="M354.6,485.8c22.9-16.5,48.8-27.1,74.6-37.7c1.5-0.6,2.9-1.6,4.4-1.9c13.3-2.2,17.7-12.2,20.6-23.5c0.5-2,1.6-5,3.1-5.6
	c6.5-2.4,5.8-8,6.5-13c0.4-2.6,0.4-5.2,0.8-7.8c0.7-4.6-0.4-8.4-3.2-12.4c-3.3-4.7-5.8-10.1-7.5-15.6c-3.7-11.5-6.9-23.1-9.7-34.8
	c-1.4-5.7-4.1-12.2,2.9-16.8c0.9-0.6,1-3,1-4.5c0.3-12.9,1.3-25.9,0.6-38.7c-0.8-15.9,7-26.4,18.7-35.1c14.8-11,32.3-15,50-18.5
	c4-0.8,7.9-1.5,11.9-1.9c2.7-0.3,5.4-0.1,8.1-0.1c-0.1,1.2,0,1.8-0.2,1.9c-8.3,7.5-8.4,7.5,0.1,14.8c5.8,5,11.7,9.9,17.4,15.1
	c5.2,4.8,8.6,10.7,8.7,17.9c0.2,14.8,0,29.6,0.4,44.3c0.1,2.9,2,5.7,3.1,8.5c0.3,0.9,1.4,1.7,1.4,2.5c-0.7,7.8-0.8,15.8-2.6,23.3
	c-1.9,7.7-5.4,15.1-8.4,22.5c-1.8,4.5-3.7,8.9-6,13.1c-5.3,9.9-6.7,22-2.6,30.5c4.1,8.5,7.2,17.6,11.8,25.8c1,1.8,3.6,3.1,5.7,4
	c25,11,50.1,21.9,75.2,32.8c0.6,0.2,1.1,0.5,1.6,0.8c14.8,9.9,13.6,6.7,12.4,25.7c-2.3,0-4.7,0-7.1,0c-95.4,0-190.7,0-286.1,0
	c-2.6,0-5.3,0.1-7.9,0.1C354.6,496.4,354.6,491.1,354.6,485.8z"/>
</svg>
