<?xml version="1.0" encoding="utf-8"?>
<!-- Generator: Adobe Illustrator 22.0.0, SVG Export Plug-In . SVG Version: 6.00 Build 0)  -->
<svg version="1.1" id="Capa_1" xmlns="http://www.w3.org/2000/svg" xmlns:xlink="http://www.w3.org/1999/xlink" x="0px" y="0px"
	 viewBox="0 0 700 700" style="enable-background:new 0 0 700 700;" xml:space="preserve">
<style type="text/css">
	.st0{fill:#3A4B8C;}
</style>
<path class="st0" d="M270.1,369c-4,13.3-8.1,26.6-12.1,39.9c-3,9.8-9.7,15.4-19.8,16.4c-4.9,0.5-10,0.4-14.9-0.2
	c-9.1-1.1-13.9-7.9-11.4-16.7c5.5-19.5,11.5-38.8,17.4-58.2c10.2-33.7,20.7-67.3,30.5-101.1c3.1-10.5,11.5-18.9,24.8-18.6
	c25.1,0.6,50.3,0,75.5,0.3c8.4,0.1,16.4-1.1,24.4-3.7c15.1-5,30.4-9.5,45.7-14.1c6-1.8,9.1-5.6,9.8-11.8c3.3-27.9,6.6-55.8,9.9-83.7
	c0.9-7.9,6-14.3,13.8-15.7c4.9-0.9,10.3-0.9,15.3-0.1c7.8,1.4,12.6,8.3,11.8,16.2c-2.3,21.2-4.8,42.3-7.3,63.5
	c-1.8,15.2-3.5,30.4-5.3,45.6c-1.3,11.2-7.6,18.4-18.1,22.3c-18.9,6.9-37.7,13.9-56.6,20.7c-3.6,1.3-5.2,2.8-5.2,7
	c0.1,77.3,0.1,154.6,0.1,231.9c0,24.7,0.1,49.3-0.5,74c-0.4,14.6-13.4,25.3-28.9,25c-15.2-0.2-27.9-11.7-28-26.2
	c-0.2-45.3-0.1-90.7-0.1-136c0-3.5,0-6.9,0-10.8c-4,0-7.6,0-11.9,0c0,1.9,0,3.9,0,5.8c0,46.2,0,92.3-0.1,138.5
	c0,11.1-4.6,19.7-14.4,25.1c-10,5.5-20.3,5.1-30-0.6c-10.4-6.2-13.4-16.3-13.4-27.8c0.1-67,0-134,0-201c0-2,0-3.9,0-5.9
	C270.9,369,270.5,369,270.1,369z"/>
<path class="st0" d="M274.8,156.1c0.1-33.6,27.1-60.3,60.8-60.2c32.7,0.1,59.6,27.3,59.6,60.4c0,33.2-27.2,60.5-60.3,60.3
	C301.6,216.5,274.7,189.4,274.8,156.1z"/>
</svg>
